<?xml version="1.0" encoding="UTF-8" standalone="no"?>
<!DOCTYPE svg PUBLIC "-//W3C//DTD SVG 1.1//EN" "http://www.w3.org/Graphics/SVG/1.1/DTD/svg11.dtd">
<svg width="100%" height="100%" viewBox="0 0 3508 2481" version="1.1" xmlns="http://www.w3.org/2000/svg" xmlns:xlink="http://www.w3.org/1999/xlink" xml:space="preserve" xmlns:serif="http://www.serif.com/" style="fill-rule:evenodd;clip-rule:evenodd;stroke-linejoin:round;stroke-miterlimit:2;">
    <g transform="matrix(0.919346,0,0,0.919346,-1234.9,-159.856)">
        <g transform="matrix(4.56501,0,0,4.56501,-8614.4,-6513.28)">
            <path d="M2558.98,1820.38L2570.84,1820.38L2564.88,1808.44L2558.98,1820.38ZM2550.28,1830.78L2563.49,1803.83L2566.28,1803.83L2579.63,1830.78L2575.99,1830.78L2572.33,1823.53L2557.44,1823.53L2553.87,1830.78L2550.28,1830.78Z" style="fill:rgb(255,189,0);fill-rule:nonzero;"/>
        </g>
        <g transform="matrix(5.61631,0,0,5.61631,-11207.6,-8440.78)">
            <path d="M2605.29,1825.68C2604.1,1827.55 2602.54,1828.99 2600.6,1829.98C2598.68,1830.95 2596.49,1831.44 2594.03,1831.44C2590.37,1831.44 2587.35,1830.41 2584.98,1828.34C2582.62,1826.26 2581.44,1823.62 2581.44,1820.43C2581.44,1817.24 2582.62,1814.61 2584.98,1812.52C2587.35,1810.42 2590.37,1809.37 2594.03,1809.37C2596.31,1809.37 2598.38,1809.8 2600.24,1810.67C2602.09,1811.51 2603.59,1812.72 2604.73,1814.28L2602.14,1816.09C2601.28,1814.9 2600.14,1813.99 2598.72,1813.35C2597.32,1812.7 2595.76,1812.38 2594.03,1812.38C2591.37,1812.38 2589.15,1813.14 2587.39,1814.67C2585.65,1816.18 2584.78,1818.09 2584.78,1820.38C2584.78,1822.68 2585.66,1824.59 2587.42,1826.12C2589.18,1827.63 2591.38,1828.39 2594.03,1828.39C2595.89,1828.39 2597.53,1828.03 2598.94,1827.29C2600.36,1826.56 2601.6,1825.42 2602.68,1823.88L2605.29,1825.68Z" style="fill:rgb(255,189,0);fill-rule:nonzero;"/>
        </g>
        <g transform="matrix(5.94514,0,0,5.94514,-11946.2,-9040)">
            <path d="M2615.25,1822.73L2623.41,1822.73L2619.35,1814.74L2615.25,1822.73ZM2607.71,1830.78L2618.3,1809.93L2620.35,1809.93L2631.05,1830.78L2627.55,1830.78L2624.85,1825.49L2613.84,1825.49L2611.15,1830.78L2607.71,1830.78Z" style="fill:rgb(255,189,0);fill-rule:nonzero;"/>
        </g>
        <g transform="matrix(6.19805,0,0,6.19805,-12502.7,-9503.02)">
            <path d="M2643.45,1809.93C2646.85,1809.93 2649.59,1810.91 2651.68,1812.86C2653.76,1814.8 2654.8,1817.32 2654.8,1820.43C2654.8,1823.57 2653.78,1826.09 2651.72,1827.98C2649.69,1829.85 2646.93,1830.78 2643.45,1830.78L2634.2,1830.78L2634.2,1809.93L2643.45,1809.93ZM2643.5,1812.94L2637.47,1812.94L2637.47,1827.78L2643.5,1827.78C2645.97,1827.78 2647.92,1827.12 2649.33,1825.8C2650.75,1824.47 2651.46,1822.66 2651.46,1820.38C2651.46,1818.19 2650.72,1816.4 2649.26,1815.01C2647.79,1813.63 2645.87,1812.94 2643.5,1812.94Z" style="fill:rgb(255,189,0);fill-rule:nonzero;"/>
        </g>
        <g transform="matrix(6.24242,0,0,6.19805,-12512.6,-9503.02)">
            <path d="M2659.95,1830.78L2659.95,1809.93L2679.51,1809.93L2679.51,1812.99L2663.22,1812.99L2663.22,1818.19L2673.92,1818.19L2673.92,1821.19L2663.22,1821.19L2663.22,1827.78L2680.41,1827.78L2680.41,1830.78L2659.95,1830.78Z" style="fill:rgb(255,189,0);fill-rule:nonzero;"/>
        </g>
        <g transform="matrix(6.19805,0,0,6.19805,-12281.5,-9503.02)">
            <path d="M2685.05,1830.78L2685.05,1809.93L2687.76,1809.93L2696.3,1822.14L2704.85,1809.93L2707.56,1809.93L2707.56,1830.78L2704.31,1830.78L2704.31,1815.79L2696.3,1827.39L2688.32,1815.79L2688.32,1830.78L2685.05,1830.78Z" style="fill:rgb(255,189,0);fill-rule:nonzero;"/>
        </g>
        <g transform="matrix(6.27289,0,0,6.27289,-12376.4,-9640.03)">
            <path d="M2720.7,1830.78L2720.7,1820.14L2711.2,1809.93L2715.4,1809.93L2722.31,1817.33L2729.09,1809.93L2733.44,1809.93L2723.89,1820.09L2723.89,1830.78L2720.7,1830.78Z" style="fill:rgb(255,189,0);fill-rule:nonzero;"/>
        </g>
    </g>
    <g id="path1" transform="matrix(6.53778,0,0,6.40997,-30.6871,-1976.9)">
        <path d="M403.78,507.579C398.346,506.897 392.415,502.46 390.362,497.542L390.005,496.688L392.238,495.579L394.47,494.47L395.835,496.479C401.126,504.269 410.824,504.869 414.367,497.627C416.938,492.372 414.701,488.765 403.42,479.982C397.406,475.299 396.102,473.977 394.659,471.098C388.793,459.397 402.961,448.7 414.29,456.278C417.03,458.11 420.63,462.177 419.767,462.464C419.618,462.514 418.713,463.128 417.756,463.829L416.015,465.105L415.054,464.242C414.526,463.768 413.622,462.859 413.045,462.221C408.708,457.426 400.753,458.262 399.179,463.677C397.918,468.015 399.901,470.926 408.221,476.951C416.615,483.03 419.539,486.273 420.571,490.651C422.835,500.253 414.262,508.896 403.78,507.579ZM260.013,507.148C245.853,503.72 239.655,487.548 248.009,475.829C255.072,465.923 269.541,464.567 278.041,473.015C279.136,474.104 280.091,474.995 280.163,474.995C280.234,474.995 280.293,473.537 280.293,471.755L280.293,468.515L285.333,468.515L285.333,487.307C285.333,508.852 285.648,506.675 282.532,506.675L280.307,506.675L280.173,500.109L277.653,502.307C272.823,506.52 265.603,508.501 260.013,507.148L260.013,507.148ZM268.708,502.455C280.371,499.874 284.491,485.157 275.935,476.637C269.472,470.203 258.076,470.926 252.659,478.115C243.76,489.924 254.148,505.678 268.708,502.455ZM351.093,507.229C344.701,506.152 338.145,500.548 335.957,494.291C328.955,474.268 353.475,458.493 368.793,473.165L370.773,475.062L370.773,468.515L375.813,468.515L375.813,487.307C375.813,508.852 376.128,506.675 373.012,506.675L370.787,506.675L370.653,500.145L368.613,501.98C363.598,506.49 357.518,508.312 351.093,507.229L351.093,507.229ZM358.893,502.57C367.738,501.065 373.353,490.85 370.094,482.195C365.11,468.958 345.794,468.958 340.947,482.195C336.717,493.747 346.365,504.701 358.893,502.57ZM506.853,506.911C492.289,503.523 486.781,484.922 497.076,473.898C508.732,461.417 529.224,467.601 532.169,484.488C532.368,485.635 532.433,486.734 532.324,487.141L532.139,487.835L497.013,487.958L497.013,488.807C497.013,503.806 521.665,508.242 526.6,494.13C526.726,493.77 530.853,495.726 530.853,496.147C530.853,497.046 527.843,500.967 525.846,502.668C521.148,506.672 513.333,508.418 506.853,506.911L506.853,506.911ZM526.201,481.887C523.478,474.653 516.391,470.84 508.698,472.47C503.657,473.538 500.127,476.73 497.991,482.151L497.5,483.395L526.769,483.395L526.201,481.887ZM189.513,506.749L184.293,506.666L184.293,454.835L190.422,454.835C218.395,454.835 228.931,462.066 228.933,481.264C228.935,500.55 218.634,507.209 189.513,506.749L189.513,506.749ZM207.573,500.957C220.461,498.236 226.34,487.806 222.544,474.395C219.704,464.361 212.56,460.52 196.113,460.186L189.333,460.047L189.333,501.691L197.313,501.565C204.048,501.458 205.649,501.363 207.573,500.957L207.573,500.957ZM465.813,506.915L465.813,454.595L470.613,454.595L470.613,468.515L478.773,468.515L478.773,472.835L470.613,472.835L470.613,506.915L465.813,506.915ZM308.373,480.524L308.373,454.355L313.413,454.355L313.413,468.515L321.573,468.515L321.573,472.595L313.416,472.595L313.293,506.555L308.373,506.692L308.373,480.524ZM438.213,506.675L438.213,468.515L443.013,468.515L443.013,506.675L438.213,506.675ZM439.049,460.501C438.65,460.327 437.981,459.794 437.56,459.316C434.218,455.509 439.739,450.479 443.453,453.947C446.634,456.917 443.053,462.246 439.049,460.501Z" style="fill-rule:nonzero;"/>
    </g>
    <g transform="matrix(0.849096,0,0,0.849096,-389.778,-65.327)">
        <path d="M1524.65,1861.24C1422.65,2006.21 1254.06,2101 1063.5,2101C876.94,2101 711.433,2010.14 608.852,1870.3C626.79,1870 662.497,1869.65 706.539,1870.57C770.432,1871.9 1080.76,1859.92 1082.99,1539.19C1085.21,1218.46 767.91,1203.54 767.91,1203.54L613.341,1198.66C716.223,1062.25 879.637,974 1063.5,974C1247.12,974 1410.35,1062.02 1513.25,1198.13L1302.78,1198.13C1302.78,1198.13 1115.73,1221.51 1115.47,1390.85C1115.2,1560.2 1270.3,1599.82 1270.3,1599.82L1491.18,1607.4C1491.18,1607.4 1567.79,1601.02 1568.05,1669.12C1568.32,1737.21 1490.1,1726.5 1490.1,1726.5L1100.32,1724.34L1045.09,1870.65L1508.5,1870.65L1524.65,1861.24ZM1590.77,1338.42C1609.69,1388.45 1621.69,1441.86 1625.6,1497.49L1621.11,1494.8C1621.11,1494.8 1586.46,1475.13 1570.22,1469.89C1555.3,1465.09 1539.32,1463.68 1523.66,1463.4C1508,1463.11 1399.14,1463.4 1399.14,1463.4L1330.93,1463.4L1312.53,1462.31C1312.53,1462.31 1253.56,1463.61 1252.98,1406.01C1252.39,1348.42 1303.87,1342.13 1303.87,1342.13L1417.55,1341.05L1493.34,1339.96L1589.71,1339.96L1590.77,1338.42ZM534.402,1731.67C512.15,1671.13 500,1605.72 500,1537.5C500,1467.23 512.891,1399.94 536.436,1337.88L737.594,1338.88C737.594,1338.88 932.524,1344.07 941.148,1522.95C949.867,1703.79 778.738,1727.58 778.738,1727.58L534.402,1731.67Z" style="fill:url(#_Linear1);"/>
    </g>
    <defs>
        <linearGradient id="_Linear1" x1="0" y1="0" x2="1" y2="0" gradientUnits="userSpaceOnUse" gradientTransform="matrix(0.700711,-1127,1127,0.700711,1062.8,2101)"><stop offset="0" style="stop-color:rgb(248,178,0);stop-opacity:1"/><stop offset="0.57" style="stop-color:rgb(253,228,0);stop-opacity:1"/><stop offset="1" style="stop-color:rgb(255,251,0);stop-opacity:1"/></linearGradient>
    </defs>
</svg>
